<?xml version="1.0" standalone="no"?>
<!DOCTYPE svg PUBLIC "-//W3C//DTD SVG 20010904//EN"
 "http://www.w3.org/TR/2001/REC-SVG-20010904/DTD/svg10.dtd">
<svg version="1.0" xmlns="http://www.w3.org/2000/svg"
 width="500.000000pt" height="500.000000pt" viewBox="0 0 500.000000 500.000000"
 preserveAspectRatio="xMidYMid meet">

<g transform="translate(0.000000,500.000000) scale(0.100000,-0.100000)"
fill="#000000" stroke="none">
<path d="M2320 4065 c-160 -16 -280 -47 -411 -108 -141 -65 -317 -175 -341
-212 -4 -6 -41 -40 -82 -74 -41 -35 -101 -97 -132 -140 -32 -42 -48 -67 -36
-57 26 23 29 11 5 -18 -14 -16 -14 -18 -2 -8 9 6 19 9 22 5 4 -3 7 0 7 8 0 12
2 12 10 -1 11 -17 -7 -43 -24 -33 -7 5 -7 2 1 -8 9 -12 9 -24 0 -57 -7 -24
-15 -40 -18 -38 -3 3 -2 -25 2 -62 15 -132 81 -256 187 -352 l65 -59 -22 -76
c-25 -86 -28 -200 -4 -191 7 3 13 -1 13 -10 0 -11 -6 -15 -19 -11 -27 7 -32
-21 -21 -123 9 -94 44 -224 84 -314 14 -32 23 -63 19 -70 -3 -6 -3 -8 2 -4 4
4 16 -4 27 -17 11 -14 23 -23 27 -21 4 3 29 -13 56 -34 l50 -40 6 33 c4 17 14
66 23 107 9 41 24 118 34 170 10 52 22 104 27 115 5 11 -15 -4 -43 -32 -48
-50 -83 -65 -97 -43 -3 6 -1 10 5 10 19 0 50 85 71 190 12 65 23 185 29 338
11 232 35 432 65 539 20 69 77 167 129 221 52 54 180 124 271 147 146 38 329
15 470 -58 161 -83 240 -208 276 -432 36 -229 40 -268 38 -375 -1 -91 1 -105
15 -104 9 0 70 1 136 2 107 2 120 4 120 20 0 9 15 44 33 77 31 59 35 61 142
115 61 31 142 76 180 101 39 26 85 54 103 63 18 9 36 24 39 32 9 23 -48 142
-122 254 -80 120 -220 274 -245 267 -9 -2 -41 13 -71 34 -165 116 -226 154
-307 194 -160 81 -295 119 -487 140 -148 17 -128 17 -305 0z m-226 -331 c42
-6 66 -24 31 -24 -31 0 -133 -60 -165 -97 -94 -107 -129 -189 -169 -403 -21
-110 -66 -226 -87 -224 -5 0 -17 -10 -27 -23 -13 -16 -29 -23 -52 -23 -28 0
-43 10 -98 70 -82 89 -117 169 -117 269 0 114 24 150 175 259 122 88 245 149
370 182 82 22 79 22 139 14z m1003 -54 c90 -34 130 -57 210 -117 126 -95 152
-120 170 -162 22 -52 31 -127 22 -177 -10 -53 -79 -195 -91 -188 -4 3 -8 1 -8
-3 0 -5 -19 -29 -42 -54 -39 -42 -46 -46 -68 -36 -14 5 -32 10 -40 11 -8 1
-14 9 -14 18 1 10 -2 16 -6 13 -27 -17 -78 121 -105 284 -27 159 -96 308 -173
371 -20 17 -67 40 -104 52 -88 28 -71 41 47 34 74 -3 109 -12 202 -46z"/>
<path d="M1666 2995 c-16 -12 -17 -15 -4 -15 9 0 18 7 22 15 7 18 6 18 -18 0z"/>
<path d="M2095 3485 c-40 -20 -75 -73 -75 -116 0 -65 69 -139 130 -139 35 0
87 34 110 72 68 111 -49 240 -165 183z m60 -49 c18 -13 18 -15 2 -40 -10 -14
-26 -26 -37 -26 -11 0 -27 12 -37 26 -16 25 -16 27 2 40 10 8 26 14 35 14 9 0
25 -6 35 -14z"/>
<path d="M2744 3490 c-11 -4 -35 -25 -53 -46 -31 -34 -33 -41 -29 -91 4 -44
11 -60 35 -84 58 -58 151 -44 200 30 68 102 -39 237 -153 191z m51 -56 c20
-20 16 -32 -19 -58 l-28 -21 -19 24 c-24 29 -24 47 -1 60 25 15 48 13 67 -5z"/>
<path d="M1197 3299 c-7 -28 -6 -31 10 -14 6 6 8 18 3 24 -5 9 -9 5 -13 -10z"/>
<path d="M2374 3215 c-57 -21 -121 -86 -134 -135 -27 -102 52 -226 158 -246
28 -5 32 -10 32 -38 0 -46 -52 -124 -95 -142 -65 -27 -117 -28 -171 -5 -100
45 -154 129 -157 249 -1 39 4 81 12 100 12 29 17 32 41 27 19 -4 33 -1 44 11
16 15 16 18 1 34 -9 10 -30 20 -46 24 -37 7 -118 -11 -139 -31 -13 -13 -13
-16 4 -29 11 -8 26 -14 33 -14 16 0 16 0 -2 -43 -33 -78 -8 -204 60 -303 19
-28 51 -90 70 -139 19 -48 45 -105 59 -125 19 -29 24 -50 25 -99 0 -100 24
-154 102 -235 38 -39 69 -75 69 -80 0 -5 3 -6 6 -3 4 4 1 13 -5 21 -10 12 -9
14 8 9 12 -3 21 -12 21 -19 0 -8 4 -14 10 -14 5 0 9 -3 9 -7 -1 -5 0 -11 1
-15 1 -5 3 -12 4 -17 4 -32 181 -127 276 -147 49 -11 280 -11 280 0 0 5 6 3
14 -3 12 -10 13 -8 9 8 -4 18 -1 21 23 22 16 0 23 3 17 6 -18 7 -16 23 3 23 8
0 13 4 10 9 -4 5 0 12 6 14 10 4 10 6 0 6 -10 1 -10 4 2 16 8 8 22 12 30 9 9
-3 22 -1 30 5 16 14 26 4 26 -26 0 -12 3 -23 8 -23 30 1 154 154 203 252 34
67 71 91 95 61 13 -17 14 -17 8 0 -4 10 -1 17 7 17 9 0 7 7 -6 20 -19 18 -37
19 -313 22 -307 4 -317 5 -306 47 2 9 -3 1 -11 -16 -8 -18 -19 -33 -25 -33
-16 0 1 131 30 225 16 50 31 102 34 116 3 14 24 44 46 68 80 84 116 188 99
290 -5 36 -12 68 -15 72 -3 5 7 11 21 15 21 5 25 12 23 33 -3 25 -5 26 -79 29
-62 2 -80 -1 -99 -16 -33 -27 -21 -52 25 -52 44 0 57 -26 58 -120 2 -146 -110
-270 -244 -270 -78 0 -151 56 -174 134 -19 65 -19 66 9 66 89 0 185 106 186
203 0 63 -51 141 -114 174 -42 22 -162 26 -212 8z m58 -72 c24 -21 23 -44 -3
-77 -13 -17 -30 -26 -47 -26 -33 0 -45 8 -61 38 -29 56 62 110 111 65z m-8
-614 c3 -17 6 -80 6 -140 l0 -109 28 -1 27 -1 -30 -7 c-22 -5 -29 -12 -27 -25
4 -23 26 -46 44 -46 10 0 9 -3 -2 -10 -12 -8 -10 -10 10 -11 24 -1 24 -1 -5
-10 -16 -4 -40 -6 -53 -2 -13 3 -27 1 -31 -5 -5 -8 -15 -7 -35 3 -36 19 -50
19 -42 0 8 -23 -27 -2 -53 31 -32 41 -44 91 -39 166 6 84 41 141 109 176 62
32 85 29 93 -9z m91 11 c-3 -5 1 -10 9 -10 51 0 102 -64 121 -148 9 -42 -3
-125 -16 -116 -6 3 -10 0 -8 -7 3 -27 -1 -40 -12 -33 -6 3 -8 17 -4 32 l6 26
-23 -19 c-19 -17 -20 -17 -8 -2 12 16 12 20 -1 29 -11 7 -11 11 -1 15 6 2 12
10 12 16 0 5 -3 7 -7 4 -9 -10 -33 12 -27 26 2 7 -5 30 -16 52 -11 21 -21 48
-22 60 -1 11 -5 -16 -8 -60 l-6 -80 -2 113 c-1 73 2 112 9 112 5 0 7 -4 4 -10z
m68 -327 c-5 -12 -7 -12 -14 -1 -13 20 -11 28 5 22 8 -3 12 -12 9 -21z"/>
<path d="M2280 2265 c0 -8 2 -15 4 -15 2 0 6 7 10 15 3 8 1 15 -4 15 -6 0 -10
-7 -10 -15z"/>
<path d="M3962 2720 c-12 -19 -24 -20 -306 -20 -162 0 -297 -3 -299 -7 -3 -5
68 -8 156 -8 98 1 165 -3 169 -9 4 -7 27 -6 66 2 32 7 88 12 124 12 l65 0 7
-78 c15 -165 -49 -500 -125 -652 -17 -36 -35 -67 -39 -70 -4 -3 -10 -14 -14
-26 -13 -41 -66 -115 -78 -108 -7 4 -8 3 -4 -4 23 -38 -272 -336 -405 -409
-19 -10 -56 -33 -83 -51 -28 -18 -53 -32 -57 -32 -3 0 -21 34 -39 74 -18 41
-41 83 -52 93 -19 17 -19 15 2 -25 19 -35 20 -46 10 -52 -11 -7 -11 -12 -2
-23 9 -11 8 -14 -3 -14 -8 0 -15 7 -15 15 0 9 -6 12 -17 8 -17 -7 -63 29 -63
49 0 7 -7 26 -16 43 -13 27 -20 31 -47 28 -26 -3 -33 -8 -35 -30 -2 -18 -9
-26 -23 -26 -28 0 -24 30 9 57 l27 22 -29 1 c-16 0 -26 3 -23 7 4 3 -1 15 -10
25 -21 23 -25 58 -6 51 7 -3 10 -9 7 -14 -3 -5 1 -9 9 -9 8 0 17 9 20 20 4 17
2 20 -16 16 -12 -3 -16 -3 -9 0 6 3 10 10 6 15 -3 5 6 4 21 -3 18 -8 22 -14
13 -19 -8 -5 -2 -7 15 -5 15 1 30 6 35 11 4 4 1 5 -5 1 -16 -9 -17 10 -2 19 5
4 20 -1 31 -12 l21 -18 -19 35 c-10 19 -17 38 -16 42 1 3 -13 2 -31 -4 -214
-68 -227 -71 -382 -72 -115 0 -165 4 -213 17 -34 10 -67 15 -72 12 -4 -3 -10
-1 -12 5 -5 14 -52 17 -53 3 0 -15 -15 -30 -15 -15 0 6 -7 9 -17 5 -12 -5 -14
-3 -8 7 6 10 4 12 -11 6 -24 -10 -25 -10 -51 -1 -29 9 -30 32 -2 40 22 7 43
-11 33 -27 -3 -4 -1 -8 5 -8 5 0 12 4 15 9 3 5 16 7 29 5 12 -3 6 2 -13 11
-56 27 -82 36 -76 27 2 -4 -4 -13 -14 -20 -16 -9 -20 -8 -24 6 -3 10 -16 19
-28 19 -19 2 -20 0 -8 -8 11 -8 8 -9 -13 -4 l-29 6 27 -25 c24 -23 25 -26 10
-32 -10 -4 -21 -1 -25 7 -5 7 -12 10 -16 7 -10 -11 22 -38 44 -38 11 0 23 6
25 13 4 10 6 10 6 0 1 -8 15 -13 36 -13 19 0 35 -5 35 -11 0 -7 -15 -10 -39
-7 -28 2 -37 0 -34 -9 4 -9 -7 -13 -36 -13 -34 0 -41 -3 -41 -20 0 -17 -7 -20
-40 -20 -22 0 -40 5 -40 10 0 6 -9 10 -20 10 -11 0 -20 -4 -20 -10 0 -5 -9
-10 -20 -10 -11 0 -20 5 -20 10 0 6 -12 10 -26 10 -14 0 -32 7 -41 16 -14 14
-14 16 3 29 15 11 17 18 8 31 -11 18 -44 28 -44 13 0 -5 -7 -9 -15 -9 -8 0
-15 -6 -15 -14 0 -8 -3 -21 -6 -29 -3 -9 3 -16 16 -20 25 -6 18 -27 -8 -27
-15 0 -15 -2 -2 -10 12 -8 11 -10 -7 -10 -12 0 -23 -3 -26 -7 -2 -5 -2 -1 1 7
13 47 12 59 -4 53 -9 -3 -14 -13 -11 -23 4 -14 1 -15 -19 -6 -13 6 -24 17 -24
23 0 18 -50 29 -60 13 -4 -7 -13 -9 -19 -6 -6 4 -8 12 -5 18 4 6 -1 8 -14 4
-15 -5 -25 -1 -34 13 -14 23 -38 28 -38 9 0 -8 -3 -9 -8 -3 -4 6 -20 21 -36
35 -59 51 -9 -15 89 -118 255 -268 567 -413 970 -452 184 -17 373 9 595 82
273 89 529 281 731 548 84 111 119 172 168 299 80 206 114 378 115 586 1 147
-8 192 -32 155z m-1962 -1080 c0 -5 -5 -10 -11 -10 -5 0 -7 5 -4 10 3 6 8 10
11 10 2 0 4 -4 4 -10z m224 -57 c7 3 13 0 13 -7 0 -7 -10 -12 -21 -12 -14 1
-21 -5 -20 -17 1 -10 -9 -25 -22 -34 -17 -11 -23 -21 -19 -34 4 -13 1 -19 -9
-19 -9 0 -16 5 -16 10 0 6 -11 10 -25 10 -14 0 -25 5 -25 10 0 6 6 10 14 10 8
0 18 5 22 12 4 6 3 8 -4 4 -9 -6 -22 17 -28 51 -4 21 14 25 45 8 21 -10 36
-12 53 -6 17 7 19 10 6 10 -10 1 -18 6 -18 11 0 7 7 7 21 0 11 -7 26 -9 33 -7z
m556 -2 c0 -5 -7 -12 -16 -15 -23 -9 -54 -7 -54 3 0 4 12 6 26 3 19 -3 25 -1
20 7 -4 6 -1 11 8 11 9 0 16 -4 16 -9z m-449 -37 c7 -20 4 -21 -36 -20 -29 1
-41 5 -38 13 3 8 16 10 34 6 31 -6 41 12 12 21 -15 4 -15 5 1 3 10 -1 22 -12
27 -23z m-816 -4 c3 -6 -1 -7 -9 -4 -18 7 -21 14 -7 14 6 0 13 -4 16 -10z
m869 -7 c4 -9 1 -20 -6 -24 -15 -10 -17 -8 -23 20 -5 25 20 29 29 4z m240 -2
c7 -11 -41 -24 -54 -16 -6 4 -10 10 -10 16 0 12 57 12 64 0z m-1114 -22 c0 -6
-4 -7 -10 -4 -5 3 -10 11 -10 16 0 6 5 7 10 4 6 -3 10 -11 10 -16z m1210 -4
c0 -8 -6 -15 -14 -15 -7 0 -19 7 -26 15 -11 13 -8 15 14 15 16 0 26 -5 26 -15z
m-393 -21 c-3 -3 -12 -4 -19 -1 -8 3 -5 6 6 6 11 1 17 -2 13 -5z m-767 -14 c0
-5 -2 -10 -4 -10 -3 0 -8 5 -11 10 -3 6 -1 10 4 10 6 0 11 -4 11 -10z m460 0
c0 -5 -4 -10 -10 -10 -5 0 -10 5 -10 10 0 6 5 10 10 10 6 0 10 -4 10 -10z
m537 -76 c-3 -3 -12 -4 -19 -1 -8 3 -5 6 6 6 11 1 17 -2 13 -5z m252 -11 c28
-24 17 -33 -40 -33 -46 0 -49 2 -49 25 0 22 4 25 35 25 19 0 44 -8 54 -17z
m-469 -3 c-36 -12 -62 -12 -55 0 3 6 23 10 43 9 33 -1 34 -2 12 -9z m200 -30
c-36 -12 -60 -12 -60 0 0 6 19 10 43 9 36 -1 38 -2 17 -9z m-60 -240 c0 -5 -4
-10 -10 -10 -5 0 -10 5 -10 10 0 6 5 10 10 10 6 0 10 -4 10 -10z m57 -6 c-3
-3 -12 -4 -19 -1 -8 3 -5 6 6 6 11 1 17 -2 13 -5z"/>
<path d="M2960 2692 c0 -4 16 -6 35 -4 19 2 35 6 35 8 0 2 -16 4 -35 4 -19 0
-35 -4 -35 -8z"/>
<path d="M3421 2144 c0 -11 3 -14 6 -6 3 7 2 16 -1 19 -3 4 -6 -2 -5 -13z"/>
<path d="M1592 2020 c16 -25 38 -34 38 -15 0 8 -7 15 -15 15 -8 0 -15 5 -15
10 0 6 -5 10 -10 10 -6 0 -5 -8 2 -20z"/>
<path d="M3326 1992 c-8 -15 -23 -35 -34 -45 -12 -11 -18 -25 -15 -35 5 -11 3
-13 -7 -7 -8 5 -11 4 -6 -3 4 -6 14 -9 24 -6 10 4 13 2 7 -3 -6 -4 -18 -19
-27 -33 -8 -14 -25 -26 -38 -27 -19 -2 -20 0 -8 15 8 11 2 9 -18 -5 -17 -12
-37 -29 -44 -38 -7 -8 -39 -31 -71 -51 -33 -19 -57 -40 -54 -45 4 -5 0 -6 -7
-4 -8 3 -23 -3 -35 -14 -11 -11 -22 -19 -24 -18 -2 1 3 -5 11 -14 8 -9 17 -15
18 -14 2 2 21 -14 43 -36 31 -31 38 -44 33 -63 -3 -13 -1 -27 5 -30 7 -5 7
-15 0 -33 -9 -24 -8 -25 8 -12 12 10 15 11 9 1 -11 -18 19 -49 55 -57 15 -4
31 -15 34 -26 7 -22 25 -16 25 9 0 18 60 62 85 62 8 0 15 7 15 15 0 8 9 15 20
15 13 0 17 5 14 14 -4 10 2 16 18 18 13 2 23 10 23 18 0 8 3 17 7 20 12 10 21
80 9 80 -6 0 -11 -11 -11 -24 0 -14 -4 -28 -10 -31 -5 -3 -10 -16 -11 -28 -1
-15 -4 -11 -11 13 -5 19 -16 41 -23 49 -12 12 -17 11 -35 -10 l-20 -24 7 30
c5 25 4 28 -8 19 -22 -18 -77 -23 -83 -7 -3 7 -19 13 -35 13 -24 0 -29 3 -24
16 5 13 2 15 -17 9 -19 -6 -22 -4 -17 10 4 9 7 19 7 21 0 2 6 4 14 4 7 0 16 9
19 21 4 14 2 19 -7 16 -25 -10 -36 8 -13 22 12 8 19 10 15 6 -9 -9 43 -45 55
-38 4 3 -1 20 -12 38 -18 32 -18 34 -2 49 24 22 31 20 31 -9 0 -18 5 -25 18
-25 24 0 54 33 47 52 -4 9 4 19 21 27 15 6 24 14 21 17 -3 4 3 15 14 27 10 11
19 30 19 40 0 19 1 20 20 2 18 -16 20 -16 20 -2 0 10 -6 17 -14 17 -8 0 -17 6
-19 13 -4 9 -6 9 -6 -1 -1 -7 -5 -11 -10 -8 -5 3 -7 15 -4 26 3 11 10 17 16
13 6 -3 7 -1 3 5 -10 17 -14 15 -30 -16z m14 -46 c0 -7 -7 -21 -16 -32 -14
-18 -15 -18 -8 6 5 20 4 23 -7 13 -24 -23 -30 -13 -7 11 23 24 38 25 38 2z
m-78 -138 c-7 -7 -12 -8 -12 -2 0 14 12 26 19 19 2 -3 -1 -11 -7 -17z m-242
-112 c0 -2 -8 -10 -17 -17 -16 -13 -17 -12 -4 4 13 16 21 21 21 13z"/>
<path d="M1683 1992 c1 -14 5 -18 11 -12 7 7 6 14 -1 21 -9 9 -12 7 -10 -9z"/>
<path d="M3476 1971 c-4 -5 -2 -12 3 -15 5 -4 12 -2 15 3 4 5 2 12 -3 15 -5 4
-12 2 -15 -3z"/>
<path d="M3422 1939 c-1 -35 14 -47 23 -19 4 12 1 26 -8 34 -12 12 -14 10 -15
-15z"/>
<path d="M1455 1910 c-3 -5 1 -10 9 -10 9 0 16 5 16 10 0 6 -4 10 -9 10 -6 0
-13 -4 -16 -10z"/>
<path d="M3347 1895 c-4 -8 -3 -16 1 -19 4 -3 9 4 9 15 2 23 -3 25 -10 4z"/>
<path d="M3540 1890 c0 -5 5 -10 11 -10 5 0 7 5 4 10 -3 6 -8 10 -11 10 -2 0
-4 -4 -4 -10z"/>
<path d="M3246 1865 c-9 -26 -7 -32 5 -12 6 10 9 21 6 23 -2 3 -7 -2 -11 -11z"/>
<path d="M3375 1860 c-3 -5 -1 -10 4 -10 6 0 11 5 11 10 0 6 -2 10 -4 10 -3 0
-8 -4 -11 -10z"/>
<path d="M1266 1844 c-8 -20 3 -64 16 -64 5 0 16 -6 24 -14 7 -8 23 -12 34 -9
14 4 20 0 20 -12 0 -14 -3 -15 -14 -6 -10 8 -16 9 -21 1 -3 -5 -3 -10 1 -10 4
0 -1 -9 -10 -19 -11 -12 -14 -21 -7 -26 6 -3 11 -1 11 5 0 6 4 9 9 6 5 -3 7
-15 4 -25 -3 -10 1 -22 7 -26 8 -5 11 -1 9 11 -5 29 9 44 41 44 15 0 30 -6 33
-12 2 -7 8 -10 13 -5 4 4 1 15 -8 24 -13 13 -22 14 -47 5 -17 -6 -33 -7 -36
-2 -3 4 8 13 24 18 22 8 30 18 35 46 8 44 2 56 -30 56 -14 0 -27 7 -30 15 -8
21 -70 20 -78 -1z"/>
<path d="M3431 1824 c0 -11 3 -14 6 -6 3 7 2 16 -1 19 -3 4 -6 -2 -5 -13z"/>
<path d="M3021 1797 c-13 -21 -12 -21 5 -5 10 10 16 20 13 22 -3 3 -11 -5 -18
-17z"/>
<path d="M3330 1809 c0 -8 14 -13 32 -10 9 1 21 -57 13 -69 -3 -5 -1 -10 4
-10 15 0 13 50 -2 75 -12 20 -47 30 -47 14z"/>
<path d="M3490 1810 c0 -5 5 -10 10 -10 6 0 10 5 10 10 0 6 -4 10 -10 10 -5 0
-10 -4 -10 -10z"/>
<path d="M3578 1813 c7 -3 16 -2 19 1 4 3 -2 6 -13 5 -11 0 -14 -3 -6 -6z"/>
<path d="M3288 1793 c7 -3 16 -2 19 1 4 3 -2 6 -13 5 -11 0 -14 -3 -6 -6z"/>
<path d="M3511 1774 c0 -11 3 -14 6 -6 3 7 2 16 -1 19 -3 4 -6 -2 -5 -13z"/>
<path d="M3570 1786 c0 -2 7 -7 16 -10 8 -3 12 -2 9 4 -6 10 -25 14 -25 6z"/>
<path d="M1870 1765 c14 -7 24 -16 22 -19 -2 -4 -1 -12 1 -19 4 -9 6 -9 6 1 1
10 12 7 41 -9 22 -13 40 -26 40 -29 0 -4 7 -7 15 -7 8 0 14 2 12 3 -14 14
-143 94 -152 94 -5 -1 1 -7 15 -15z"/>
<path d="M3564 1739 c-4 -7 -20 -8 -41 -4 -31 5 -35 4 -29 -10 5 -15 1 -17
-28 -13 -24 3 -32 0 -29 -9 8 -19 83 -17 83 2 0 8 5 15 11 15 5 0 8 -4 4 -9
-3 -5 0 -13 6 -16 6 -4 13 2 16 14 3 12 13 21 25 21 15 0 18 -4 13 -17 -5 -14
-3 -15 6 -6 6 6 9 19 6 27 -7 18 -33 21 -43 5z"/>
<path d="M3150 1719 c0 -5 5 -7 10 -4 6 3 10 8 10 11 0 2 -4 4 -10 4 -5 0 -10
-5 -10 -11z"/>
<path d="M1470 1716 c0 -2 11 -11 25 -20 24 -16 25 -16 25 4 0 15 -7 20 -25
20 -14 0 -25 -2 -25 -4z"/>
<path d="M3620 1716 c0 -2 8 -10 18 -17 15 -13 16 -12 3 4 -13 16 -21 21 -21
13z"/>
<path d="M1370 1686 c0 -2 7 -7 16 -10 8 -3 12 -2 9 4 -6 10 -25 14 -25 6z"/>
<path d="M1940 1680 c-9 -6 -10 -10 -3 -10 6 0 15 5 18 10 8 12 4 12 -15 0z"/>
<path d="M1432 1635 c-17 -36 -15 -38 9 -14 13 13 17 25 12 30 -6 6 -14 0 -21
-16z"/>
<path d="M1665 1650 c-3 -5 -1 -10 4 -10 6 0 11 5 11 10 0 6 -2 10 -4 10 -3 0
-8 -4 -11 -10z"/>
<path d="M3432 1620 c0 -14 2 -19 5 -12 2 6 2 18 0 25 -3 6 -5 1 -5 -13z"/>
<path d="M3524 1610 c0 -13 4 -16 10 -10 7 7 7 13 0 20 -6 6 -10 3 -10 -10z"/>
<path d="M1475 1600 c-19 -8 -19 -9 3 -9 12 -1 22 4 22 9 0 6 -1 10 -2 9 -2 0
-12 -4 -23 -9z"/>
<path d="M1575 1570 c-3 -5 1 -10 9 -10 9 0 16 5 16 10 0 6 -4 10 -9 10 -6 0
-13 -4 -16 -10z"/>
<path d="M1875 1570 c-4 -6 5 -10 20 -10 15 0 24 4 20 10 -3 6 -12 10 -20 10
-8 0 -17 -4 -20 -10z"/>
<path d="M1828 1563 c7 -3 16 -2 19 1 4 3 -2 6 -13 5 -11 0 -14 -3 -6 -6z"/>
<path d="M2992 1506 c18 -31 34 -54 36 -52 5 5 -47 94 -59 101 -4 3 6 -19 23
-49z"/>
<path d="M3457 1549 c7 -7 15 -10 18 -7 3 3 -2 9 -12 12 -14 6 -15 5 -6 -5z"/>
<path d="M2888 1473 c6 -2 18 -2 25 0 6 3 1 5 -13 5 -14 0 -19 -2 -12 -5z"/>
</g>
</svg>
